<svg width="64" height="64" viewBox="0 0 64 64" fill="none" xmlns="http://www.w3.org/2000/svg">
<rect width="64" height="64" rx="6" fill="black"/>
<mask id="path-3-inside-1_43_938" fill="white">
<path d="M0 12C0 6.34315 0 3.51472 1.75736 1.75736C3.51472 0 6.34315 0 12 0H52C57.6569 0 60.4853 0 62.2426 1.75736C64 3.51472 64 6.34315 64 12V52C64 57.6569 64 60.4853 62.2426 62.2426C60.4853 64 57.6569 64 52 64H12C6.34315 64 3.51472 64 1.75736 62.2426C0 60.4853 0 57.6569 0 52V12Z"/>
</mask>
<path d="M1.75736 62.2426L2.46447 61.5355L1.75736 62.2426ZM62.2426 62.2426L62.9497 62.9497L62.2426 62.2426ZM62.2426 1.75736L61.5355 2.46447L62.2426 1.75736ZM1.75736 1.75736L1.05025 1.05025L1.75736 1.75736ZM12 1H52V-1H12V1ZM63 12V52H65V12H63ZM52 63H12V65H52V63ZM1 52V12H-1V52H1ZM12 63C9.1433 63 7.10138 62.9979 5.54962 62.7892C4.02662 62.5845 3.12638 62.1974 2.46447 61.5355L1.05025 62.9497C2.1457 64.0452 3.53835 64.5368 5.28312 64.7714C6.99913 65.0021 9.19984 65 12 65V63ZM-1 52C-1 54.8002 -1.00212 57.0009 -0.771413 58.7169C-0.536834 60.4617 -0.0451961 61.8543 1.05025 62.9497L2.46447 61.5355C1.80256 60.8736 1.41551 59.9734 1.21075 58.4504C1.00212 56.8986 1 54.8567 1 52H-1ZM63 52C63 54.8567 62.9979 56.8986 62.7892 58.4504C62.5845 59.9734 62.1974 60.8736 61.5355 61.5355L62.9497 62.9497C64.0452 61.8543 64.5368 60.4617 64.7714 58.7169C65.0021 57.0009 65 54.8002 65 52H63ZM52 65C54.8002 65 57.0009 65.0021 58.7169 64.7714C60.4617 64.5368 61.8543 64.0452 62.9497 62.9497L61.5355 61.5355C60.8736 62.1974 59.9734 62.5845 58.4504 62.7892C56.8986 62.9979 54.8567 63 52 63V65ZM52 1C54.8567 1 56.8986 1.00212 58.4504 1.21075C59.9734 1.41551 60.8736 1.80256 61.5355 2.46447L62.9497 1.05025C61.8543 -0.0451961 60.4617 -0.536834 58.7169 -0.771413C57.0009 -1.00212 54.8002 -1 52 -1V1ZM65 12C65 9.19984 65.0021 6.99913 64.7714 5.28312C64.5368 3.53835 64.0452 2.1457 62.9497 1.05025L61.5355 2.46447C62.1974 3.12638 62.5845 4.02662 62.7892 5.54962C62.9979 7.10138 63 9.1433 63 12H65ZM12 -1C9.19984 -1 6.99913 -1.00212 5.28312 -0.771413C3.53835 -0.536834 2.1457 -0.0451961 1.05025 1.05025L2.46447 2.46447C3.12638 1.80256 4.02662 1.41551 5.54962 1.21075C7.10138 1.00212 9.1433 1 12 1V-1ZM1 12C1 9.1433 1.00212 7.10138 1.21075 5.54962C1.41551 4.02662 1.80256 3.12638 2.46447 2.46447L1.05025 1.05025C-0.0451961 2.1457 -0.536834 3.53835 -0.771413 5.28312C-1.00212 6.99913 -1 9.19984 -1 12H1Z" fill="#565656" mask="url(#path-3-inside-1_43_938)"/>
<path d="M16.412 22.056C16.412 22.3013 16.3267 22.504 16.156 22.664C15.9853 22.824 15.788 22.904 15.564 22.904C15.3187 22.904 15.116 22.8187 14.956 22.648C14.796 22.4773 14.716 22.28 14.716 22.056C14.716 21.8 14.8013 21.592 14.972 21.432C15.1427 21.272 15.34 21.192 15.564 21.192C15.8093 21.192 16.012 21.2773 16.172 21.448C16.332 21.6187 16.412 21.8213 16.412 22.056ZM16.412 23.736C16.412 23.9813 16.3267 24.184 16.156 24.344C15.9853 24.504 15.788 24.584 15.564 24.584C15.3187 24.584 15.116 24.4987 14.956 24.328C14.796 24.1573 14.716 23.96 14.716 23.736C14.716 23.4907 14.8013 23.288 14.972 23.128C15.1427 22.968 15.34 22.888 15.564 22.888C15.8093 22.888 16.012 22.9733 16.172 23.144C16.332 23.3147 16.412 23.512 16.412 23.736ZM14.732 23.736C14.732 23.9813 14.652 24.184 14.492 24.344C14.332 24.504 14.124 24.584 13.868 24.584C13.6227 24.584 13.42 24.4987 13.26 24.328C13.1 24.1573 13.02 23.96 13.02 23.736C13.02 23.4907 13.1053 23.288 13.276 23.128C13.4467 22.968 13.644 22.888 13.868 22.888C14.1347 22.888 14.3427 22.9733 14.492 23.144C14.652 23.304 14.732 23.5013 14.732 23.736ZM16.412 25.416C16.412 25.6507 16.3267 25.8533 16.156 26.024C15.996 26.184 15.7987 26.264 15.564 26.264C15.308 26.264 15.1 26.1787 14.94 26.008C14.7907 25.8267 14.716 25.6293 14.716 25.416C14.716 25.1707 14.8013 24.968 14.972 24.808C15.1427 24.648 15.34 24.568 15.564 24.568C15.8093 24.568 16.012 24.6533 16.172 24.824C16.332 24.9947 16.412 25.192 16.412 25.416ZM13.036 25.416C13.036 25.6507 12.9507 25.8533 12.78 26.024C12.62 26.184 12.4227 26.264 12.188 26.264C11.932 26.264 11.724 26.1787 11.564 26.008C11.4147 25.8267 11.34 25.6293 11.34 25.416C11.34 25.1707 11.4253 24.968 11.596 24.808C11.7667 24.648 11.964 24.568 12.188 24.568C12.4333 24.568 12.636 24.6533 12.796 24.824C12.956 24.9947 13.036 25.192 13.036 25.416ZM16.412 27.096C16.412 27.3413 16.3267 27.5493 16.156 27.72C15.996 27.88 15.7987 27.96 15.564 27.96C15.308 27.96 15.1 27.8747 14.94 27.704C14.7907 27.5227 14.716 27.32 14.716 27.096C14.716 26.8613 14.796 26.6693 14.956 26.52C15.1267 26.36 15.3293 26.28 15.564 26.28C15.8307 26.28 16.0387 26.36 16.188 26.52C16.3373 26.68 16.412 26.872 16.412 27.096ZM16.412 28.792C16.412 29.0267 16.3267 29.224 16.156 29.384C15.9853 29.544 15.788 29.624 15.564 29.624C15.308 29.624 15.1 29.544 14.94 29.384C14.7907 29.2133 14.716 29.016 14.716 28.792C14.716 28.5467 14.796 28.3493 14.956 28.2C15.1267 28.04 15.3293 27.96 15.564 27.96C15.8093 27.96 16.012 28.04 16.172 28.2C16.332 28.36 16.412 28.5573 16.412 28.792ZM16.412 30.472C16.412 30.7173 16.3267 30.92 16.156 31.08C15.9853 31.24 15.788 31.32 15.564 31.32C15.3187 31.32 15.116 31.2347 14.956 31.064C14.796 30.8933 14.716 30.696 14.716 30.472C14.716 30.2267 14.8013 30.0187 14.972 29.848C15.1427 29.6773 15.34 29.592 15.564 29.592C15.7987 29.592 15.996 29.6827 16.156 29.864C16.3267 30.0347 16.412 30.2373 16.412 30.472ZM19.772 32.152C19.772 32.408 19.6867 32.616 19.516 32.776C19.3453 32.936 19.1427 33.016 18.908 33.016C18.6733 33.016 18.476 32.9307 18.316 32.76C18.156 32.5893 18.076 32.3867 18.076 32.152C18.076 31.896 18.1613 31.6933 18.332 31.544C18.5133 31.384 18.7053 31.304 18.908 31.304C19.164 31.304 19.372 31.3893 19.532 31.56C19.692 31.7307 19.772 31.928 19.772 32.152ZM18.108 32.152C18.108 32.3867 18.0227 32.5893 17.852 32.76C17.6813 32.9307 17.484 33.016 17.26 33.016C17.0147 33.016 16.8067 32.9307 16.636 32.76C16.476 32.5787 16.396 32.376 16.396 32.152C16.396 31.9067 16.4813 31.704 16.652 31.544C16.8227 31.384 17.0253 31.304 17.26 31.304C17.5053 31.304 17.708 31.3893 17.868 31.56C18.028 31.7307 18.108 31.928 18.108 32.152ZM16.412 32.152C16.412 32.3973 16.3267 32.6053 16.156 32.776C15.996 32.936 15.7987 33.016 15.564 33.016C15.3293 33.016 15.1267 32.9307 14.956 32.76C14.796 32.5787 14.716 32.376 14.716 32.152C14.716 31.9067 14.8013 31.704 14.972 31.544C15.1427 31.384 15.34 31.304 15.564 31.304C15.8093 31.304 16.012 31.3893 16.172 31.56C16.332 31.7307 16.412 31.928 16.412 32.152ZM14.732 32.152C14.732 32.3973 14.6467 32.6053 14.476 32.776C14.316 32.936 14.1133 33.016 13.868 33.016C13.6333 33.016 13.4307 32.9307 13.26 32.76C13.1 32.5787 13.02 32.376 13.02 32.152C13.02 31.9067 13.1053 31.704 13.276 31.544C13.4467 31.384 13.644 31.304 13.868 31.304C14.1347 31.304 14.3427 31.3893 14.492 31.56C14.652 31.72 14.732 31.9173 14.732 32.152ZM13.036 32.152C13.036 32.3973 12.9507 32.6053 12.78 32.776C12.62 32.936 12.4227 33.016 12.188 33.016C11.9533 33.016 11.7507 32.9307 11.58 32.76C11.42 32.5787 11.34 32.376 11.34 32.152C11.34 31.9173 11.42 31.72 11.58 31.56C11.7507 31.3893 11.9533 31.304 12.188 31.304C12.4333 31.304 12.636 31.3893 12.796 31.56C12.956 31.7307 13.036 31.928 13.036 32.152ZM30.0204 22.056C30.0204 22.3013 29.935 22.504 29.7644 22.664C29.5937 22.824 29.391 22.904 29.1564 22.904C28.911 22.904 28.7084 22.8187 28.5484 22.648C28.3884 22.4773 28.3084 22.28 28.3084 22.056C28.3084 21.8107 28.3884 21.608 28.5484 21.448C28.719 21.2773 28.9217 21.192 29.1564 21.192C29.4017 21.192 29.6044 21.2827 29.7644 21.464C29.935 21.6347 30.0204 21.832 30.0204 22.056ZM28.3244 22.056C28.3244 22.3013 28.239 22.504 28.0684 22.664C27.8977 22.824 27.695 22.904 27.4604 22.904C27.2257 22.904 27.0284 22.8187 26.8684 22.648C26.7084 22.4773 26.6284 22.28 26.6284 22.056C26.6284 21.8107 26.7084 21.608 26.8684 21.448C27.039 21.2773 27.2364 21.192 27.4604 21.192C27.7164 21.192 27.9244 21.2773 28.0844 21.448C28.2444 21.6187 28.3244 21.8213 28.3244 22.056ZM26.6444 22.056C26.6444 22.3013 26.559 22.504 26.3884 22.664C26.2177 22.824 26.015 22.904 25.7804 22.904C25.535 22.904 25.327 22.824 25.1564 22.664C24.9964 22.4933 24.9164 22.2907 24.9164 22.056C24.9164 21.8107 25.0017 21.608 25.1724 21.448C25.3537 21.2773 25.5564 21.192 25.7804 21.192C26.0257 21.192 26.2284 21.2827 26.3884 21.464C26.559 21.6347 26.6444 21.832 26.6444 22.056ZM24.9324 22.056C24.9324 22.2907 24.847 22.4933 24.6764 22.664C24.5164 22.824 24.3244 22.904 24.1004 22.904C23.855 22.904 23.647 22.824 23.4764 22.664C23.3164 22.4933 23.2364 22.2907 23.2364 22.056C23.2364 21.8 23.3217 21.592 23.4924 21.432C23.663 21.272 23.8657 21.192 24.1004 21.192C24.3244 21.192 24.5164 21.2827 24.6764 21.464C24.847 21.6347 24.9324 21.832 24.9324 22.056ZM31.6684 23.736C31.6684 23.9813 31.583 24.184 31.4124 24.344C31.2417 24.504 31.0497 24.584 30.8364 24.584C30.6017 24.584 30.399 24.504 30.2284 24.344C30.0684 24.1733 29.9884 23.9707 29.9884 23.736C29.9884 23.48 30.0684 23.2773 30.2284 23.128C30.399 22.968 30.6017 22.888 30.8364 22.888C31.0817 22.888 31.279 22.9733 31.4284 23.144C31.5884 23.304 31.6684 23.5013 31.6684 23.736ZM23.2524 23.736C23.2524 23.9813 23.1724 24.184 23.0124 24.344C22.8524 24.504 22.655 24.584 22.4204 24.584C22.1857 24.584 21.983 24.504 21.8124 24.344C21.6524 24.1733 21.5724 23.9707 21.5724 23.736C21.5724 23.48 21.6524 23.2773 21.8124 23.128C21.983 22.968 22.1857 22.888 22.4204 22.888C22.6657 22.888 22.863 22.9733 23.0124 23.144C23.1724 23.304 23.2524 23.5013 23.2524 23.736ZM31.6684 25.416C31.6684 25.6507 31.583 25.8533 31.4124 26.024C31.2524 26.184 31.0604 26.264 30.8364 26.264C30.5804 26.264 30.3724 26.184 30.2124 26.024C30.063 25.8533 29.9884 25.6507 29.9884 25.416C29.9884 25.1387 30.0684 24.9307 30.2284 24.792C30.3884 24.6427 30.591 24.568 30.8364 24.568C31.0817 24.568 31.279 24.6533 31.4284 24.824C31.5884 24.984 31.6684 25.1813 31.6684 25.416ZM30.0204 25.416C30.0204 25.64 29.935 25.8373 29.7644 26.008C29.5937 26.1787 29.391 26.264 29.1564 26.264C28.9004 26.264 28.6924 26.1787 28.5324 26.008C28.383 25.8267 28.3084 25.6293 28.3084 25.416C28.3084 25.1707 28.3937 24.968 28.5644 24.808C28.735 24.648 28.9324 24.568 29.1564 24.568C29.4124 24.568 29.6204 24.6533 29.7804 24.824C29.9404 24.9947 30.0204 25.192 30.0204 25.416ZM23.2524 25.416C23.2524 25.6613 23.1724 25.864 23.0124 26.024C22.8524 26.184 22.655 26.264 22.4204 26.264C22.1644 26.264 21.9564 26.184 21.7964 26.024C21.647 25.8533 21.5724 25.6507 21.5724 25.416C21.5724 25.1387 21.6524 24.9307 21.8124 24.792C21.9724 24.6427 22.175 24.568 22.4204 24.568C22.6657 24.568 22.863 24.6533 23.0124 24.824C23.1724 24.984 23.2524 25.1813 23.2524 25.416ZM31.6684 27.096C31.6684 27.3413 31.583 27.5493 31.4124 27.72C31.2524 27.88 31.0604 27.96 30.8364 27.96C30.6017 27.96 30.399 27.8747 30.2284 27.704C30.0684 27.5227 29.9884 27.32 29.9884 27.096C29.9884 26.8507 30.0737 26.6533 30.2444 26.504C30.415 26.3547 30.6124 26.28 30.8364 26.28C31.0924 26.28 31.295 26.36 31.4444 26.52C31.5937 26.68 31.6684 26.872 31.6684 27.096ZM28.3244 27.096C28.3244 27.3413 28.239 27.5493 28.0684 27.72C27.9084 27.88 27.7057 27.96 27.4604 27.96C27.215 27.96 27.0124 27.8747 26.8524 27.704C26.703 27.5227 26.6284 27.32 26.6284 27.096C26.6284 26.8613 26.7084 26.6693 26.8684 26.52C27.039 26.36 27.2364 26.28 27.4604 26.28C27.727 26.28 27.935 26.36 28.0844 26.52C28.2444 26.6693 28.3244 26.8613 28.3244 27.096ZM26.6444 27.096C26.6444 27.3413 26.559 27.5493 26.3884 27.72C26.2284 27.88 26.0257 27.96 25.7804 27.96C25.535 27.96 25.327 27.8747 25.1564 27.704C24.9964 27.5227 24.9164 27.32 24.9164 27.096C24.9164 26.8613 25.0017 26.6693 25.1724 26.52C25.3537 26.36 25.5564 26.28 25.7804 26.28C26.047 26.28 26.255 26.3653 26.4044 26.536C26.5644 26.696 26.6444 26.8827 26.6444 27.096ZM23.2524 27.096C23.2524 27.352 23.1724 27.56 23.0124 27.72C22.8524 27.88 22.655 27.96 22.4204 27.96C22.1857 27.96 21.983 27.8747 21.8124 27.704C21.6524 27.5227 21.5724 27.32 21.5724 27.096C21.5724 26.8507 21.6577 26.6533 21.8284 26.504C21.999 26.3547 22.1964 26.28 22.4204 26.28C22.687 26.28 22.8897 26.36 23.0284 26.52C23.1777 26.6693 23.2524 26.8613 23.2524 27.096ZM31.6684 28.792C31.6684 29.0373 31.583 29.24 31.4124 29.4C31.2524 29.5493 31.0604 29.624 30.8364 29.624C30.591 29.624 30.3884 29.5387 30.2284 29.368C30.0684 29.1973 29.9884 29.0053 29.9884 28.792C29.9884 28.5253 30.0684 28.3227 30.2284 28.184C30.399 28.0347 30.6017 27.96 30.8364 27.96C31.0924 27.96 31.295 28.04 31.4444 28.2C31.5937 28.36 31.6684 28.5573 31.6684 28.792ZM24.9324 28.792C24.9324 29.0267 24.8524 29.224 24.6924 29.384C24.5324 29.544 24.335 29.624 24.1004 29.624C23.855 29.624 23.647 29.544 23.4764 29.384C23.3164 29.2133 23.2364 29.016 23.2364 28.792C23.2364 28.536 23.3217 28.3333 23.4924 28.184C23.663 28.0347 23.8657 27.96 24.1004 27.96C24.3457 27.96 24.543 28.0453 24.6924 28.216C24.8524 28.376 24.9324 28.568 24.9324 28.792ZM23.2524 28.792C23.2524 29.048 23.1724 29.2507 23.0124 29.4C22.8524 29.5493 22.655 29.624 22.4204 29.624C22.175 29.624 21.9724 29.5387 21.8124 29.368C21.6524 29.1973 21.5724 29.0053 21.5724 28.792C21.5724 28.5253 21.6524 28.3227 21.8124 28.184C21.983 28.0347 22.1857 27.96 22.4204 27.96C22.6764 27.96 22.879 28.04 23.0284 28.2C23.1777 28.36 23.2524 28.5573 23.2524 28.792ZM31.6684 30.472C31.6684 30.7067 31.583 30.9093 31.4124 31.08C31.2524 31.24 31.0604 31.32 30.8364 31.32C30.591 31.32 30.3884 31.2347 30.2284 31.064C30.0684 30.8933 29.9884 30.696 29.9884 30.472C29.9884 30.216 30.0737 30.008 30.2444 29.848C30.4257 29.6773 30.623 29.592 30.8364 29.592C31.0604 29.592 31.2524 29.6827 31.4124 29.864C31.583 30.0347 31.6684 30.2373 31.6684 30.472ZM23.2524 30.472C23.2524 30.7173 23.1724 30.92 23.0124 31.08C22.8524 31.24 22.655 31.32 22.4204 31.32C22.175 31.32 21.9724 31.2347 21.8124 31.064C21.6524 30.8933 21.5724 30.696 21.5724 30.472C21.5724 30.216 21.6577 30.008 21.8284 29.848C22.0097 29.6773 22.207 29.592 22.4204 29.592C22.6657 29.592 22.863 29.6827 23.0124 29.864C23.1724 30.0347 23.2524 30.2373 23.2524 30.472ZM30.0204 32.152C30.0204 32.3867 29.935 32.5893 29.7644 32.76C29.5937 32.9307 29.391 33.016 29.1564 33.016C28.9217 33.016 28.719 32.9307 28.5484 32.76C28.3884 32.5787 28.3084 32.376 28.3084 32.152C28.3084 31.9173 28.3884 31.72 28.5484 31.56C28.719 31.3893 28.9217 31.304 29.1564 31.304C29.4124 31.304 29.6204 31.3893 29.7804 31.56C29.9404 31.7307 30.0204 31.928 30.0204 32.152ZM28.3244 32.152C28.3244 32.408 28.239 32.616 28.0684 32.776C27.8977 32.936 27.695 33.016 27.4604 33.016C27.2364 33.016 27.039 32.9307 26.8684 32.76C26.7084 32.5787 26.6284 32.376 26.6284 32.152C26.6284 31.9173 26.7084 31.72 26.8684 31.56C27.039 31.3893 27.2364 31.304 27.4604 31.304C27.7164 31.304 27.9244 31.3893 28.0844 31.56C28.2444 31.7307 28.3244 31.928 28.3244 32.152ZM26.6444 32.152C26.6444 32.3867 26.559 32.5893 26.3884 32.76C26.2177 32.9307 26.015 33.016 25.7804 33.016C25.535 33.016 25.327 32.9307 25.1564 32.76C24.9964 32.5787 24.9164 32.376 24.9164 32.152C24.9164 31.9173 25.0017 31.72 25.1724 31.56C25.3537 31.3893 25.5564 31.304 25.7804 31.304C26.0364 31.304 26.2444 31.3893 26.4044 31.56C26.5644 31.7307 26.6444 31.928 26.6444 32.152ZM24.9324 32.152C24.9324 32.3867 24.847 32.5893 24.6764 32.76C24.5057 32.9307 24.3137 33.016 24.1004 33.016C23.855 33.016 23.647 32.9307 23.4764 32.76C23.3164 32.5787 23.2364 32.376 23.2364 32.152C23.2364 31.9067 23.3217 31.704 23.4924 31.544C23.663 31.384 23.8657 31.304 24.1004 31.304C24.3457 31.304 24.543 31.3893 24.6924 31.56C24.8524 31.72 24.9324 31.9173 24.9324 32.152ZM41.3247 22.056C41.3247 22.3013 41.2394 22.504 41.0687 22.664C40.8981 22.824 40.6954 22.904 40.4607 22.904C40.2154 22.904 40.0127 22.8187 39.8527 22.648C39.6927 22.4773 39.6127 22.28 39.6127 22.056C39.6127 21.8107 39.6927 21.608 39.8527 21.448C40.0234 21.2773 40.2261 21.192 40.4607 21.192C40.7061 21.192 40.9087 21.2827 41.0687 21.464C41.2394 21.6347 41.3247 21.832 41.3247 22.056ZM39.6287 22.056C39.6287 22.3013 39.5434 22.504 39.3727 22.664C39.2021 22.824 38.9994 22.904 38.7647 22.904C38.5301 22.904 38.3327 22.8187 38.1727 22.648C38.0127 22.4773 37.9327 22.28 37.9327 22.056C37.9327 21.8107 38.0127 21.608 38.1727 21.448C38.3434 21.2773 38.5407 21.192 38.7647 21.192C39.0207 21.192 39.2287 21.2773 39.3887 21.448C39.5487 21.6187 39.6287 21.8213 39.6287 22.056ZM37.9487 22.056C37.9487 22.3013 37.8634 22.504 37.6927 22.664C37.5221 22.824 37.3194 22.904 37.0847 22.904C36.8394 22.904 36.6314 22.824 36.4607 22.664C36.3007 22.4933 36.2207 22.2907 36.2207 22.056C36.2207 21.8107 36.3061 21.608 36.4767 21.448C36.6581 21.2773 36.8607 21.192 37.0847 21.192C37.3301 21.192 37.5327 21.2827 37.6927 21.464C37.8634 21.6347 37.9487 21.832 37.9487 22.056ZM36.2367 22.056C36.2367 22.2907 36.1514 22.4933 35.9807 22.664C35.8207 22.824 35.6287 22.904 35.4047 22.904C35.1594 22.904 34.9514 22.824 34.7807 22.664C34.6207 22.4933 34.5407 22.2907 34.5407 22.056C34.5407 21.8 34.6261 21.592 34.7967 21.432C34.9674 21.272 35.1701 21.192 35.4047 21.192C35.6287 21.192 35.8207 21.2827 35.9807 21.464C36.1514 21.6347 36.2367 21.832 36.2367 22.056ZM42.9727 23.736C42.9727 23.9813 42.8874 24.184 42.7168 24.344C42.5461 24.504 42.3541 24.584 42.1407 24.584C41.9061 24.584 41.7034 24.504 41.5328 24.344C41.3727 24.1733 41.2927 23.9707 41.2927 23.736C41.2927 23.48 41.3727 23.2773 41.5328 23.128C41.7034 22.968 41.9061 22.888 42.1407 22.888C42.3861 22.888 42.5834 22.9733 42.7327 23.144C42.8927 23.304 42.9727 23.5013 42.9727 23.736ZM34.5567 23.736C34.5567 23.9813 34.4767 24.184 34.3167 24.344C34.1567 24.504 33.9594 24.584 33.7247 24.584C33.4901 24.584 33.2874 24.504 33.1167 24.344C32.9567 24.1733 32.8767 23.9707 32.8767 23.736C32.8767 23.48 32.9567 23.2773 33.1167 23.128C33.2874 22.968 33.4901 22.888 33.7247 22.888C33.9701 22.888 34.1674 22.9733 34.3167 23.144C34.4767 23.304 34.5567 23.5013 34.5567 23.736ZM42.9727 25.416C42.9727 25.6507 42.8874 25.8533 42.7168 26.024C42.5567 26.184 42.3647 26.264 42.1407 26.264C41.8848 26.264 41.6767 26.184 41.5167 26.024C41.3674 25.8533 41.2927 25.6507 41.2927 25.416C41.2927 25.1387 41.3727 24.9307 41.5328 24.792C41.6927 24.6427 41.8954 24.568 42.1407 24.568C42.3861 24.568 42.5834 24.6533 42.7327 24.824C42.8927 24.984 42.9727 25.1813 42.9727 25.416ZM41.3247 25.416C41.3247 25.64 41.2394 25.8373 41.0687 26.008C40.8981 26.1787 40.6954 26.264 40.4607 26.264C40.2047 26.264 39.9967 26.1787 39.8367 26.008C39.6874 25.8267 39.6127 25.6293 39.6127 25.416C39.6127 25.1707 39.6981 24.968 39.8687 24.808C40.0394 24.648 40.2367 24.568 40.4607 24.568C40.7167 24.568 40.9247 24.6533 41.0848 24.824C41.2448 24.9947 41.3247 25.192 41.3247 25.416ZM34.5567 25.416C34.5567 25.6613 34.4767 25.864 34.3167 26.024C34.1567 26.184 33.9594 26.264 33.7247 26.264C33.4687 26.264 33.2607 26.184 33.1007 26.024C32.9514 25.8533 32.8767 25.6507 32.8767 25.416C32.8767 25.1387 32.9567 24.9307 33.1167 24.792C33.2767 24.6427 33.4794 24.568 33.7247 24.568C33.9701 24.568 34.1674 24.6533 34.3167 24.824C34.4767 24.984 34.5567 25.1813 34.5567 25.416ZM42.9727 27.096C42.9727 27.3413 42.8874 27.5493 42.7168 27.72C42.5567 27.88 42.3647 27.96 42.1407 27.96C41.9061 27.96 41.7034 27.8747 41.5328 27.704C41.3727 27.5227 41.2927 27.32 41.2927 27.096C41.2927 26.8507 41.3781 26.6533 41.5487 26.504C41.7194 26.3547 41.9167 26.28 42.1407 26.28C42.3967 26.28 42.5994 26.36 42.7487 26.52C42.8981 26.68 42.9727 26.872 42.9727 27.096ZM39.6287 27.096C39.6287 27.3413 39.5434 27.5493 39.3727 27.72C39.2127 27.88 39.0101 27.96 38.7647 27.96C38.5194 27.96 38.3167 27.8747 38.1567 27.704C38.0074 27.5227 37.9327 27.32 37.9327 27.096C37.9327 26.8613 38.0127 26.6693 38.1727 26.52C38.3434 26.36 38.5407 26.28 38.7647 26.28C39.0314 26.28 39.2394 26.36 39.3887 26.52C39.5487 26.6693 39.6287 26.8613 39.6287 27.096ZM37.9487 27.096C37.9487 27.3413 37.8634 27.5493 37.6927 27.72C37.5327 27.88 37.3301 27.96 37.0847 27.96C36.8394 27.96 36.6314 27.8747 36.4607 27.704C36.3007 27.5227 36.2207 27.32 36.2207 27.096C36.2207 26.8613 36.3061 26.6693 36.4767 26.52C36.6581 26.36 36.8607 26.28 37.0847 26.28C37.3514 26.28 37.5594 26.3653 37.7087 26.536C37.8687 26.696 37.9487 26.8827 37.9487 27.096ZM34.5567 27.096C34.5567 27.352 34.4767 27.56 34.3167 27.72C34.1567 27.88 33.9594 27.96 33.7247 27.96C33.4901 27.96 33.2874 27.8747 33.1167 27.704C32.9567 27.5227 32.8767 27.32 32.8767 27.096C32.8767 26.8507 32.9621 26.6533 33.1327 26.504C33.3034 26.3547 33.5007 26.28 33.7247 26.28C33.9914 26.28 34.1941 26.36 34.3327 26.52C34.4821 26.6693 34.5567 26.8613 34.5567 27.096ZM42.9727 28.792C42.9727 29.0373 42.8874 29.24 42.7168 29.4C42.5567 29.5493 42.3647 29.624 42.1407 29.624C41.8954 29.624 41.6927 29.5387 41.5328 29.368C41.3727 29.1973 41.2927 29.0053 41.2927 28.792C41.2927 28.5253 41.3727 28.3227 41.5328 28.184C41.7034 28.0347 41.9061 27.96 42.1407 27.96C42.3967 27.96 42.5994 28.04 42.7487 28.2C42.8981 28.36 42.9727 28.5573 42.9727 28.792ZM36.2367 28.792C36.2367 29.0267 36.1567 29.224 35.9967 29.384C35.8367 29.544 35.6394 29.624 35.4047 29.624C35.1594 29.624 34.9514 29.544 34.7807 29.384C34.6207 29.2133 34.5407 29.016 34.5407 28.792C34.5407 28.536 34.6261 28.3333 34.7967 28.184C34.9674 28.0347 35.1701 27.96 35.4047 27.96C35.6501 27.96 35.8474 28.0453 35.9967 28.216C36.1567 28.376 36.2367 28.568 36.2367 28.792ZM34.5567 28.792C34.5567 29.048 34.4767 29.2507 34.3167 29.4C34.1567 29.5493 33.9594 29.624 33.7247 29.624C33.4794 29.624 33.2767 29.5387 33.1167 29.368C32.9567 29.1973 32.8767 29.0053 32.8767 28.792C32.8767 28.5253 32.9567 28.3227 33.1167 28.184C33.2874 28.0347 33.4901 27.96 33.7247 27.96C33.9807 27.96 34.1834 28.04 34.3327 28.2C34.4821 28.36 34.5567 28.5573 34.5567 28.792ZM42.9727 30.472C42.9727 30.7067 42.8874 30.9093 42.7168 31.08C42.5567 31.24 42.3647 31.32 42.1407 31.32C41.8954 31.32 41.6927 31.2347 41.5328 31.064C41.3727 30.8933 41.2927 30.696 41.2927 30.472C41.2927 30.216 41.3781 30.008 41.5487 29.848C41.7301 29.6773 41.9274 29.592 42.1407 29.592C42.3647 29.592 42.5567 29.6827 42.7168 29.864C42.8874 30.0347 42.9727 30.2373 42.9727 30.472ZM34.5567 30.472C34.5567 30.7173 34.4767 30.92 34.3167 31.08C34.1567 31.24 33.9594 31.32 33.7247 31.32C33.4794 31.32 33.2767 31.2347 33.1167 31.064C32.9567 30.8933 32.8767 30.696 32.8767 30.472C32.8767 30.216 32.9621 30.008 33.1327 29.848C33.3141 29.6773 33.5114 29.592 33.7247 29.592C33.9701 29.592 34.1674 29.6827 34.3167 29.864C34.4767 30.0347 34.5567 30.2373 34.5567 30.472ZM41.3247 32.152C41.3247 32.3867 41.2394 32.5893 41.0687 32.76C40.8981 32.9307 40.6954 33.016 40.4607 33.016C40.2261 33.016 40.0234 32.9307 39.8527 32.76C39.6927 32.5787 39.6127 32.376 39.6127 32.152C39.6127 31.9173 39.6927 31.72 39.8527 31.56C40.0234 31.3893 40.2261 31.304 40.4607 31.304C40.7167 31.304 40.9247 31.3893 41.0848 31.56C41.2448 31.7307 41.3247 31.928 41.3247 32.152ZM39.6287 32.152C39.6287 32.408 39.5434 32.616 39.3727 32.776C39.2021 32.936 38.9994 33.016 38.7647 33.016C38.5407 33.016 38.3434 32.9307 38.1727 32.76C38.0127 32.5787 37.9327 32.376 37.9327 32.152C37.9327 31.9173 38.0127 31.72 38.1727 31.56C38.3434 31.3893 38.5407 31.304 38.7647 31.304C39.0207 31.304 39.2287 31.3893 39.3887 31.56C39.5487 31.7307 39.6287 31.928 39.6287 32.152ZM37.9487 32.152C37.9487 32.3867 37.8634 32.5893 37.6927 32.76C37.5221 32.9307 37.3194 33.016 37.0847 33.016C36.8394 33.016 36.6314 32.9307 36.4607 32.76C36.3007 32.5787 36.2207 32.376 36.2207 32.152C36.2207 31.9173 36.3061 31.72 36.4767 31.56C36.6581 31.3893 36.8607 31.304 37.0847 31.304C37.3407 31.304 37.5487 31.3893 37.7087 31.56C37.8687 31.7307 37.9487 31.928 37.9487 32.152ZM36.2367 32.152C36.2367 32.3867 36.1514 32.5893 35.9807 32.76C35.8101 32.9307 35.6181 33.016 35.4047 33.016C35.1594 33.016 34.9514 32.9307 34.7807 32.76C34.6207 32.5787 34.5407 32.376 34.5407 32.152C34.5407 31.9067 34.6261 31.704 34.7967 31.544C34.9674 31.384 35.1701 31.304 35.4047 31.304C35.6501 31.304 35.8474 31.3893 35.9967 31.56C36.1567 31.72 36.2367 31.9173 36.2367 32.152ZM50.3251 22.056C50.3251 22.3013 50.2398 22.504 50.0691 22.664C49.8985 22.824 49.7011 22.904 49.4771 22.904C49.2318 22.904 49.0291 22.8187 48.8691 22.648C48.7091 22.4773 48.6291 22.28 48.6291 22.056C48.6291 21.8 48.7145 21.592 48.8851 21.432C49.0558 21.272 49.2531 21.192 49.4771 21.192C49.7225 21.192 49.9251 21.2773 50.0851 21.448C50.2451 21.6187 50.3251 21.8213 50.3251 22.056ZM50.3251 23.736C50.3251 23.9813 50.2398 24.184 50.0691 24.344C49.8985 24.504 49.7011 24.584 49.4771 24.584C49.2318 24.584 49.0291 24.4987 48.8691 24.328C48.7091 24.1573 48.6291 23.96 48.6291 23.736C48.6291 23.4907 48.7145 23.288 48.8851 23.128C49.0558 22.968 49.2531 22.888 49.4771 22.888C49.7225 22.888 49.9251 22.9733 50.0851 23.144C50.2451 23.3147 50.3251 23.512 50.3251 23.736ZM48.6451 23.736C48.6451 23.9813 48.5651 24.184 48.4051 24.344C48.2451 24.504 48.0371 24.584 47.7811 24.584C47.5358 24.584 47.3331 24.4987 47.1731 24.328C47.0131 24.1573 46.9331 23.96 46.9331 23.736C46.9331 23.4907 47.0185 23.288 47.1891 23.128C47.3598 22.968 47.5571 22.888 47.7811 22.888C48.0478 22.888 48.2558 22.9733 48.4051 23.144C48.5651 23.304 48.6451 23.5013 48.6451 23.736ZM50.3251 25.416C50.3251 25.6507 50.2398 25.8533 50.0691 26.024C49.9091 26.184 49.7118 26.264 49.4771 26.264C49.2211 26.264 49.0131 26.1787 48.8531 26.008C48.7038 25.8267 48.6291 25.6293 48.6291 25.416C48.6291 25.1707 48.7145 24.968 48.8851 24.808C49.0558 24.648 49.2531 24.568 49.4771 24.568C49.7225 24.568 49.9251 24.6533 50.0851 24.824C50.2451 24.9947 50.3251 25.192 50.3251 25.416ZM46.9491 25.416C46.9491 25.6507 46.8638 25.8533 46.6931 26.024C46.5331 26.184 46.3358 26.264 46.1011 26.264C45.8451 26.264 45.6371 26.1787 45.4771 26.008C45.3278 25.8267 45.2531 25.6293 45.2531 25.416C45.2531 25.1707 45.3385 24.968 45.5091 24.808C45.6798 24.648 45.8771 24.568 46.1011 24.568C46.3465 24.568 46.5491 24.6533 46.7091 24.824C46.8691 24.9947 46.9491 25.192 46.9491 25.416ZM50.3251 27.096C50.3251 27.3413 50.2398 27.5493 50.0691 27.72C49.9091 27.88 49.7118 27.96 49.4771 27.96C49.2211 27.96 49.0131 27.8747 48.8531 27.704C48.7038 27.5227 48.6291 27.32 48.6291 27.096C48.6291 26.8613 48.7091 26.6693 48.8691 26.52C49.0398 26.36 49.2425 26.28 49.4771 26.28C49.7438 26.28 49.9518 26.36 50.1011 26.52C50.2505 26.68 50.3251 26.872 50.3251 27.096ZM50.3251 28.792C50.3251 29.0267 50.2398 29.224 50.0691 29.384C49.8985 29.544 49.7011 29.624 49.4771 29.624C49.2211 29.624 49.0131 29.544 48.8531 29.384C48.7038 29.2133 48.6291 29.016 48.6291 28.792C48.6291 28.5467 48.7091 28.3493 48.8691 28.2C49.0398 28.04 49.2425 27.96 49.4771 27.96C49.7225 27.96 49.9251 28.04 50.0851 28.2C50.2451 28.36 50.3251 28.5573 50.3251 28.792ZM50.3251 30.472C50.3251 30.7173 50.2398 30.92 50.0691 31.08C49.8985 31.24 49.7011 31.32 49.4771 31.32C49.2318 31.32 49.0291 31.2347 48.8691 31.064C48.7091 30.8933 48.6291 30.696 48.6291 30.472C48.6291 30.2267 48.7145 30.0187 48.8851 29.848C49.0558 29.6773 49.2531 29.592 49.4771 29.592C49.7118 29.592 49.9091 29.6827 50.0691 29.864C50.2398 30.0347 50.3251 30.2373 50.3251 30.472ZM53.6851 32.152C53.6851 32.408 53.5998 32.616 53.4291 32.776C53.2585 32.936 53.0558 33.016 52.8211 33.016C52.5865 33.016 52.3891 32.9307 52.2291 32.76C52.0691 32.5893 51.9891 32.3867 51.9891 32.152C51.9891 31.896 52.0745 31.6933 52.2451 31.544C52.4265 31.384 52.6185 31.304 52.8211 31.304C53.0771 31.304 53.2851 31.3893 53.4451 31.56C53.6051 31.7307 53.6851 31.928 53.6851 32.152ZM52.0211 32.152C52.0211 32.3867 51.9358 32.5893 51.7651 32.76C51.5945 32.9307 51.3971 33.016 51.1731 33.016C50.9278 33.016 50.7198 32.9307 50.5491 32.76C50.3891 32.5787 50.3091 32.376 50.3091 32.152C50.3091 31.9067 50.3945 31.704 50.5651 31.544C50.7358 31.384 50.9385 31.304 51.1731 31.304C51.4185 31.304 51.6211 31.3893 51.7811 31.56C51.9411 31.7307 52.0211 31.928 52.0211 32.152ZM50.3251 32.152C50.3251 32.3973 50.2398 32.6053 50.0691 32.776C49.9091 32.936 49.7118 33.016 49.4771 33.016C49.2425 33.016 49.0398 32.9307 48.8691 32.76C48.7091 32.5787 48.6291 32.376 48.6291 32.152C48.6291 31.9067 48.7145 31.704 48.8851 31.544C49.0558 31.384 49.2531 31.304 49.4771 31.304C49.7225 31.304 49.9251 31.3893 50.0851 31.56C50.2451 31.7307 50.3251 31.928 50.3251 32.152ZM48.6451 32.152C48.6451 32.3973 48.5598 32.6053 48.3891 32.776C48.2291 32.936 48.0265 33.016 47.7811 33.016C47.5465 33.016 47.3438 32.9307 47.1731 32.76C47.0131 32.5787 46.9331 32.376 46.9331 32.152C46.9331 31.9067 47.0185 31.704 47.1891 31.544C47.3598 31.384 47.5571 31.304 47.7811 31.304C48.0478 31.304 48.2558 31.3893 48.4051 31.56C48.5651 31.72 48.6451 31.9173 48.6451 32.152ZM46.9491 32.152C46.9491 32.3973 46.8638 32.6053 46.6931 32.776C46.5331 32.936 46.3358 33.016 46.1011 33.016C45.8665 33.016 45.6638 32.9307 45.4931 32.76C45.3331 32.5787 45.2531 32.376 45.2531 32.152C45.2531 31.9173 45.3331 31.72 45.4931 31.56C45.6638 31.3893 45.8665 31.304 46.1011 31.304C46.3465 31.304 46.5491 31.3893 46.7091 31.56C46.8691 31.7307 46.9491 31.928 46.9491 32.152Z" fill="#53E83C"/>
<path d="M18.716 44.056C18.716 44.3013 18.6307 44.504 18.46 44.664C18.2893 44.824 18.0867 44.904 17.852 44.904C17.6067 44.904 17.404 44.8187 17.244 44.648C17.084 44.4773 17.004 44.28 17.004 44.056C17.004 43.8107 17.084 43.608 17.244 43.448C17.4147 43.2773 17.6173 43.192 17.852 43.192C18.0973 43.192 18.3 43.2827 18.46 43.464C18.6307 43.6347 18.716 43.832 18.716 44.056ZM17.02 44.056C17.02 44.3013 16.9347 44.504 16.764 44.664C16.5933 44.824 16.3907 44.904 16.156 44.904C15.9213 44.904 15.724 44.8187 15.564 44.648C15.404 44.4773 15.324 44.28 15.324 44.056C15.324 43.8107 15.404 43.608 15.564 43.448C15.7347 43.2773 15.932 43.192 16.156 43.192C16.412 43.192 16.62 43.2773 16.78 43.448C16.94 43.6187 17.02 43.8213 17.02 44.056ZM15.34 44.056C15.34 44.3013 15.2547 44.504 15.084 44.664C14.9133 44.824 14.7107 44.904 14.476 44.904C14.2307 44.904 14.0227 44.824 13.852 44.664C13.692 44.4933 13.612 44.2907 13.612 44.056C13.612 43.8107 13.6973 43.608 13.868 43.448C14.0493 43.2773 14.252 43.192 14.476 43.192C14.7213 43.192 14.924 43.2827 15.084 43.464C15.2547 43.6347 15.34 43.832 15.34 44.056ZM13.628 44.056C13.628 44.2907 13.5427 44.4933 13.372 44.664C13.212 44.824 13.02 44.904 12.796 44.904C12.5507 44.904 12.3427 44.824 12.172 44.664C12.012 44.4933 11.932 44.2907 11.932 44.056C11.932 43.8 12.0173 43.592 12.188 43.432C12.3587 43.272 12.5613 43.192 12.796 43.192C13.02 43.192 13.212 43.2827 13.372 43.464C13.5427 43.6347 13.628 43.832 13.628 44.056ZM20.364 45.736C20.364 45.9813 20.2787 46.184 20.108 46.344C19.9373 46.504 19.7453 46.584 19.532 46.584C19.2973 46.584 19.0947 46.504 18.924 46.344C18.764 46.1733 18.684 45.9707 18.684 45.736C18.684 45.48 18.764 45.2773 18.924 45.128C19.0947 44.968 19.2973 44.888 19.532 44.888C19.7773 44.888 19.9747 44.9733 20.124 45.144C20.284 45.304 20.364 45.5013 20.364 45.736ZM11.948 45.736C11.948 45.9813 11.868 46.184 11.708 46.344C11.548 46.504 11.3507 46.584 11.116 46.584C10.8813 46.584 10.6787 46.504 10.508 46.344C10.348 46.1733 10.268 45.9707 10.268 45.736C10.268 45.48 10.348 45.2773 10.508 45.128C10.6787 44.968 10.8813 44.888 11.116 44.888C11.3613 44.888 11.5587 44.9733 11.708 45.144C11.868 45.304 11.948 45.5013 11.948 45.736ZM20.364 47.416C20.364 47.6507 20.2787 47.8533 20.108 48.024C19.948 48.184 19.756 48.264 19.532 48.264C19.276 48.264 19.068 48.184 18.908 48.024C18.7587 47.8533 18.684 47.6507 18.684 47.416C18.684 47.1387 18.764 46.9307 18.924 46.792C19.084 46.6427 19.2867 46.568 19.532 46.568C19.7773 46.568 19.9747 46.6533 20.124 46.824C20.284 46.984 20.364 47.1813 20.364 47.416ZM18.716 47.416C18.716 47.64 18.6307 47.8373 18.46 48.008C18.2893 48.1787 18.0867 48.264 17.852 48.264C17.596 48.264 17.388 48.1787 17.228 48.008C17.0787 47.8267 17.004 47.6293 17.004 47.416C17.004 47.1707 17.0893 46.968 17.26 46.808C17.4307 46.648 17.628 46.568 17.852 46.568C18.108 46.568 18.316 46.6533 18.476 46.824C18.636 46.9947 18.716 47.192 18.716 47.416ZM11.948 47.416C11.948 47.6613 11.868 47.864 11.708 48.024C11.548 48.184 11.3507 48.264 11.116 48.264C10.86 48.264 10.652 48.184 10.492 48.024C10.3427 47.8533 10.268 47.6507 10.268 47.416C10.268 47.1387 10.348 46.9307 10.508 46.792C10.668 46.6427 10.8707 46.568 11.116 46.568C11.3613 46.568 11.5587 46.6533 11.708 46.824C11.868 46.984 11.948 47.1813 11.948 47.416ZM20.364 49.096C20.364 49.3413 20.2787 49.5493 20.108 49.72C19.948 49.88 19.756 49.96 19.532 49.96C19.2973 49.96 19.0947 49.8747 18.924 49.704C18.764 49.5227 18.684 49.32 18.684 49.096C18.684 48.8507 18.7693 48.6533 18.94 48.504C19.1107 48.3547 19.308 48.28 19.532 48.28C19.788 48.28 19.9907 48.36 20.14 48.52C20.2893 48.68 20.364 48.872 20.364 49.096ZM17.02 49.096C17.02 49.3413 16.9347 49.5493 16.764 49.72C16.604 49.88 16.4013 49.96 16.156 49.96C15.9107 49.96 15.708 49.8747 15.548 49.704C15.3987 49.5227 15.324 49.32 15.324 49.096C15.324 48.8613 15.404 48.6693 15.564 48.52C15.7347 48.36 15.932 48.28 16.156 48.28C16.4227 48.28 16.6307 48.36 16.78 48.52C16.94 48.6693 17.02 48.8613 17.02 49.096ZM15.34 49.096C15.34 49.3413 15.2547 49.5493 15.084 49.72C14.924 49.88 14.7213 49.96 14.476 49.96C14.2307 49.96 14.0227 49.8747 13.852 49.704C13.692 49.5227 13.612 49.32 13.612 49.096C13.612 48.8613 13.6973 48.6693 13.868 48.52C14.0493 48.36 14.252 48.28 14.476 48.28C14.7427 48.28 14.9507 48.3653 15.1 48.536C15.26 48.696 15.34 48.8827 15.34 49.096ZM11.948 49.096C11.948 49.352 11.868 49.56 11.708 49.72C11.548 49.88 11.3507 49.96 11.116 49.96C10.8813 49.96 10.6787 49.8747 10.508 49.704C10.348 49.5227 10.268 49.32 10.268 49.096C10.268 48.8507 10.3533 48.6533 10.524 48.504C10.6947 48.3547 10.892 48.28 11.116 48.28C11.3827 48.28 11.5853 48.36 11.724 48.52C11.8733 48.6693 11.948 48.8613 11.948 49.096ZM20.364 50.792C20.364 51.0373 20.2787 51.24 20.108 51.4C19.948 51.5493 19.756 51.624 19.532 51.624C19.2867 51.624 19.084 51.5387 18.924 51.368C18.764 51.1973 18.684 51.0053 18.684 50.792C18.684 50.5253 18.764 50.3227 18.924 50.184C19.0947 50.0347 19.2973 49.96 19.532 49.96C19.788 49.96 19.9907 50.04 20.14 50.2C20.2893 50.36 20.364 50.5573 20.364 50.792ZM13.628 50.792C13.628 51.0267 13.548 51.224 13.388 51.384C13.228 51.544 13.0307 51.624 12.796 51.624C12.5507 51.624 12.3427 51.544 12.172 51.384C12.012 51.2133 11.932 51.016 11.932 50.792C11.932 50.536 12.0173 50.3333 12.188 50.184C12.3587 50.0347 12.5613 49.96 12.796 49.96C13.0413 49.96 13.2387 50.0453 13.388 50.216C13.548 50.376 13.628 50.568 13.628 50.792ZM11.948 50.792C11.948 51.048 11.868 51.2507 11.708 51.4C11.548 51.5493 11.3507 51.624 11.116 51.624C10.8707 51.624 10.668 51.5387 10.508 51.368C10.348 51.1973 10.268 51.0053 10.268 50.792C10.268 50.5253 10.348 50.3227 10.508 50.184C10.6787 50.0347 10.8813 49.96 11.116 49.96C11.372 49.96 11.5747 50.04 11.724 50.2C11.8733 50.36 11.948 50.5573 11.948 50.792ZM20.364 52.472C20.364 52.7067 20.2787 52.9093 20.108 53.08C19.948 53.24 19.756 53.32 19.532 53.32C19.2867 53.32 19.084 53.2347 18.924 53.064C18.764 52.8933 18.684 52.696 18.684 52.472C18.684 52.216 18.7693 52.008 18.94 51.848C19.1213 51.6773 19.3187 51.592 19.532 51.592C19.756 51.592 19.948 51.6827 20.108 51.864C20.2787 52.0347 20.364 52.2373 20.364 52.472ZM11.948 52.472C11.948 52.7173 11.868 52.92 11.708 53.08C11.548 53.24 11.3507 53.32 11.116 53.32C10.8707 53.32 10.668 53.2347 10.508 53.064C10.348 52.8933 10.268 52.696 10.268 52.472C10.268 52.216 10.3533 52.008 10.524 51.848C10.7053 51.6773 10.9027 51.592 11.116 51.592C11.3613 51.592 11.5587 51.6827 11.708 51.864C11.868 52.0347 11.948 52.2373 11.948 52.472ZM18.716 54.152C18.716 54.3867 18.6307 54.5893 18.46 54.76C18.2893 54.9307 18.0867 55.016 17.852 55.016C17.6173 55.016 17.4147 54.9307 17.244 54.76C17.084 54.5787 17.004 54.376 17.004 54.152C17.004 53.9173 17.084 53.72 17.244 53.56C17.4147 53.3893 17.6173 53.304 17.852 53.304C18.108 53.304 18.316 53.3893 18.476 53.56C18.636 53.7307 18.716 53.928 18.716 54.152ZM17.02 54.152C17.02 54.408 16.9347 54.616 16.764 54.776C16.5933 54.936 16.3907 55.016 16.156 55.016C15.932 55.016 15.7347 54.9307 15.564 54.76C15.404 54.5787 15.324 54.376 15.324 54.152C15.324 53.9173 15.404 53.72 15.564 53.56C15.7347 53.3893 15.932 53.304 16.156 53.304C16.412 53.304 16.62 53.3893 16.78 53.56C16.94 53.7307 17.02 53.928 17.02 54.152ZM15.34 54.152C15.34 54.3867 15.2547 54.5893 15.084 54.76C14.9133 54.9307 14.7107 55.016 14.476 55.016C14.2307 55.016 14.0227 54.9307 13.852 54.76C13.692 54.5787 13.612 54.376 13.612 54.152C13.612 53.9173 13.6973 53.72 13.868 53.56C14.0493 53.3893 14.252 53.304 14.476 53.304C14.732 53.304 14.94 53.3893 15.1 53.56C15.26 53.7307 15.34 53.928 15.34 54.152ZM13.628 54.152C13.628 54.3867 13.5427 54.5893 13.372 54.76C13.2013 54.9307 13.0093 55.016 12.796 55.016C12.5507 55.016 12.3427 54.9307 12.172 54.76C12.012 54.5787 11.932 54.376 11.932 54.152C11.932 53.9067 12.0173 53.704 12.188 53.544C12.3587 53.384 12.5613 53.304 12.796 53.304C13.0413 53.304 13.2387 53.3893 13.388 53.56C13.548 53.72 13.628 53.9173 13.628 54.152ZM27.7164 44.056C27.7164 44.3013 27.631 44.504 27.4604 44.664C27.2897 44.824 27.0924 44.904 26.8684 44.904C26.623 44.904 26.4204 44.8187 26.2604 44.648C26.1004 44.4773 26.0204 44.28 26.0204 44.056C26.0204 43.8 26.1057 43.592 26.2764 43.432C26.447 43.272 26.6444 43.192 26.8684 43.192C27.1137 43.192 27.3164 43.2773 27.4764 43.448C27.6364 43.6187 27.7164 43.8213 27.7164 44.056ZM27.7164 45.736C27.7164 45.9813 27.631 46.184 27.4604 46.344C27.2897 46.504 27.0924 46.584 26.8684 46.584C26.623 46.584 26.4204 46.4987 26.2604 46.328C26.1004 46.1573 26.0204 45.96 26.0204 45.736C26.0204 45.4907 26.1057 45.288 26.2764 45.128C26.447 44.968 26.6444 44.888 26.8684 44.888C27.1137 44.888 27.3164 44.9733 27.4764 45.144C27.6364 45.3147 27.7164 45.512 27.7164 45.736ZM26.0364 45.736C26.0364 45.9813 25.9564 46.184 25.7964 46.344C25.6364 46.504 25.4284 46.584 25.1724 46.584C24.927 46.584 24.7244 46.4987 24.5644 46.328C24.4044 46.1573 24.3244 45.96 24.3244 45.736C24.3244 45.4907 24.4097 45.288 24.5804 45.128C24.751 44.968 24.9484 44.888 25.1724 44.888C25.439 44.888 25.647 44.9733 25.7964 45.144C25.9564 45.304 26.0364 45.5013 26.0364 45.736ZM27.7164 47.416C27.7164 47.6507 27.631 47.8533 27.4604 48.024C27.3004 48.184 27.103 48.264 26.8684 48.264C26.6124 48.264 26.4044 48.1787 26.2444 48.008C26.095 47.8267 26.0204 47.6293 26.0204 47.416C26.0204 47.1707 26.1057 46.968 26.2764 46.808C26.447 46.648 26.6444 46.568 26.8684 46.568C27.1137 46.568 27.3164 46.6533 27.4764 46.824C27.6364 46.9947 27.7164 47.192 27.7164 47.416ZM24.3404 47.416C24.3404 47.6507 24.255 47.8533 24.0844 48.024C23.9244 48.184 23.727 48.264 23.4924 48.264C23.2364 48.264 23.0284 48.1787 22.8684 48.008C22.719 47.8267 22.6444 47.6293 22.6444 47.416C22.6444 47.1707 22.7297 46.968 22.9004 46.808C23.071 46.648 23.2684 46.568 23.4924 46.568C23.7377 46.568 23.9404 46.6533 24.1004 46.824C24.2604 46.9947 24.3404 47.192 24.3404 47.416ZM27.7164 49.096C27.7164 49.3413 27.631 49.5493 27.4604 49.72C27.3004 49.88 27.103 49.96 26.8684 49.96C26.6124 49.96 26.4044 49.8747 26.2444 49.704C26.095 49.5227 26.0204 49.32 26.0204 49.096C26.0204 48.8613 26.1004 48.6693 26.2604 48.52C26.431 48.36 26.6337 48.28 26.8684 48.28C27.135 48.28 27.343 48.36 27.4924 48.52C27.6417 48.68 27.7164 48.872 27.7164 49.096ZM27.7164 50.792C27.7164 51.0267 27.631 51.224 27.4604 51.384C27.2897 51.544 27.0924 51.624 26.8684 51.624C26.6124 51.624 26.4044 51.544 26.2444 51.384C26.095 51.2133 26.0204 51.016 26.0204 50.792C26.0204 50.5467 26.1004 50.3493 26.2604 50.2C26.431 50.04 26.6337 49.96 26.8684 49.96C27.1137 49.96 27.3164 50.04 27.4764 50.2C27.6364 50.36 27.7164 50.5573 27.7164 50.792ZM27.7164 52.472C27.7164 52.7173 27.631 52.92 27.4604 53.08C27.2897 53.24 27.0924 53.32 26.8684 53.32C26.623 53.32 26.4204 53.2347 26.2604 53.064C26.1004 52.8933 26.0204 52.696 26.0204 52.472C26.0204 52.2267 26.1057 52.0187 26.2764 51.848C26.447 51.6773 26.6444 51.592 26.8684 51.592C27.103 51.592 27.3004 51.6827 27.4604 51.864C27.631 52.0347 27.7164 52.2373 27.7164 52.472ZM31.0764 54.152C31.0764 54.408 30.991 54.616 30.8204 54.776C30.6497 54.936 30.447 55.016 30.2124 55.016C29.9777 55.016 29.7804 54.9307 29.6204 54.76C29.4604 54.5893 29.3804 54.3867 29.3804 54.152C29.3804 53.896 29.4657 53.6933 29.6364 53.544C29.8177 53.384 30.0097 53.304 30.2124 53.304C30.4684 53.304 30.6764 53.3893 30.8364 53.56C30.9964 53.7307 31.0764 53.928 31.0764 54.152ZM29.4124 54.152C29.4124 54.3867 29.327 54.5893 29.1564 54.76C28.9857 54.9307 28.7884 55.016 28.5644 55.016C28.319 55.016 28.111 54.9307 27.9404 54.76C27.7804 54.5787 27.7004 54.376 27.7004 54.152C27.7004 53.9067 27.7857 53.704 27.9564 53.544C28.127 53.384 28.3297 53.304 28.5644 53.304C28.8097 53.304 29.0124 53.3893 29.1724 53.56C29.3324 53.7307 29.4124 53.928 29.4124 54.152ZM27.7164 54.152C27.7164 54.3973 27.631 54.6053 27.4604 54.776C27.3004 54.936 27.103 55.016 26.8684 55.016C26.6337 55.016 26.431 54.9307 26.2604 54.76C26.1004 54.5787 26.0204 54.376 26.0204 54.152C26.0204 53.9067 26.1057 53.704 26.2764 53.544C26.447 53.384 26.6444 53.304 26.8684 53.304C27.1137 53.304 27.3164 53.3893 27.4764 53.56C27.6364 53.7307 27.7164 53.928 27.7164 54.152ZM26.0364 54.152C26.0364 54.3973 25.951 54.6053 25.7804 54.776C25.6204 54.936 25.4177 55.016 25.1724 55.016C24.9377 55.016 24.735 54.9307 24.5644 54.76C24.4044 54.5787 24.3244 54.376 24.3244 54.152C24.3244 53.9067 24.4097 53.704 24.5804 53.544C24.751 53.384 24.9484 53.304 25.1724 53.304C25.439 53.304 25.647 53.3893 25.7964 53.56C25.9564 53.72 26.0364 53.9173 26.0364 54.152ZM24.3404 54.152C24.3404 54.3973 24.255 54.6053 24.0844 54.776C23.9244 54.936 23.727 55.016 23.4924 55.016C23.2577 55.016 23.055 54.9307 22.8844 54.76C22.7244 54.5787 22.6444 54.376 22.6444 54.152C22.6444 53.9173 22.7244 53.72 22.8844 53.56C23.055 53.3893 23.2577 53.304 23.4924 53.304C23.7377 53.304 23.9404 53.3893 24.1004 53.56C24.2604 53.7307 24.3404 53.928 24.3404 54.152ZM41.3247 44.056C41.3247 44.3013 41.2394 44.504 41.0687 44.664C40.8981 44.824 40.6954 44.904 40.4607 44.904C40.2154 44.904 40.0127 44.8187 39.8527 44.648C39.6927 44.4773 39.6127 44.28 39.6127 44.056C39.6127 43.8107 39.6927 43.608 39.8527 43.448C40.0234 43.2773 40.2261 43.192 40.4607 43.192C40.7061 43.192 40.9087 43.2827 41.0687 43.464C41.2394 43.6347 41.3247 43.832 41.3247 44.056ZM39.6287 44.056C39.6287 44.3013 39.5434 44.504 39.3727 44.664C39.2021 44.824 38.9994 44.904 38.7647 44.904C38.5301 44.904 38.3327 44.8187 38.1727 44.648C38.0127 44.4773 37.9327 44.28 37.9327 44.056C37.9327 43.8107 38.0127 43.608 38.1727 43.448C38.3434 43.2773 38.5407 43.192 38.7647 43.192C39.0207 43.192 39.2287 43.2773 39.3887 43.448C39.5487 43.6187 39.6287 43.8213 39.6287 44.056ZM37.9487 44.056C37.9487 44.3013 37.8634 44.504 37.6927 44.664C37.5221 44.824 37.3194 44.904 37.0847 44.904C36.8394 44.904 36.6314 44.824 36.4607 44.664C36.3007 44.4933 36.2207 44.2907 36.2207 44.056C36.2207 43.8107 36.3061 43.608 36.4767 43.448C36.6581 43.2773 36.8607 43.192 37.0847 43.192C37.3301 43.192 37.5327 43.2827 37.6927 43.464C37.8634 43.6347 37.9487 43.832 37.9487 44.056ZM36.2367 44.056C36.2367 44.2907 36.1514 44.4933 35.9807 44.664C35.8207 44.824 35.6287 44.904 35.4047 44.904C35.1594 44.904 34.9514 44.824 34.7807 44.664C34.6207 44.4933 34.5407 44.2907 34.5407 44.056C34.5407 43.8 34.6261 43.592 34.7967 43.432C34.9674 43.272 35.1701 43.192 35.4047 43.192C35.6287 43.192 35.8207 43.2827 35.9807 43.464C36.1514 43.6347 36.2367 43.832 36.2367 44.056ZM42.9727 45.736C42.9727 45.9813 42.8874 46.184 42.7168 46.344C42.5461 46.504 42.3541 46.584 42.1407 46.584C41.9061 46.584 41.7034 46.504 41.5328 46.344C41.3727 46.1733 41.2927 45.9707 41.2927 45.736C41.2927 45.48 41.3727 45.2773 41.5328 45.128C41.7034 44.968 41.9061 44.888 42.1407 44.888C42.3861 44.888 42.5834 44.9733 42.7327 45.144C42.8927 45.304 42.9727 45.5013 42.9727 45.736ZM34.5567 45.736C34.5567 45.9813 34.4767 46.184 34.3167 46.344C34.1567 46.504 33.9594 46.584 33.7247 46.584C33.4901 46.584 33.2874 46.504 33.1167 46.344C32.9567 46.1733 32.8767 45.9707 32.8767 45.736C32.8767 45.48 32.9567 45.2773 33.1167 45.128C33.2874 44.968 33.4901 44.888 33.7247 44.888C33.9701 44.888 34.1674 44.9733 34.3167 45.144C34.4767 45.304 34.5567 45.5013 34.5567 45.736ZM42.9727 47.416C42.9727 47.6507 42.8874 47.8533 42.7168 48.024C42.5567 48.184 42.3647 48.264 42.1407 48.264C41.8848 48.264 41.6767 48.184 41.5167 48.024C41.3674 47.8533 41.2927 47.6507 41.2927 47.416C41.2927 47.1387 41.3727 46.9307 41.5328 46.792C41.6927 46.6427 41.8954 46.568 42.1407 46.568C42.3861 46.568 42.5834 46.6533 42.7327 46.824C42.8927 46.984 42.9727 47.1813 42.9727 47.416ZM41.3247 47.416C41.3247 47.64 41.2394 47.8373 41.0687 48.008C40.8981 48.1787 40.6954 48.264 40.4607 48.264C40.2047 48.264 39.9967 48.1787 39.8367 48.008C39.6874 47.8267 39.6127 47.6293 39.6127 47.416C39.6127 47.1707 39.6981 46.968 39.8687 46.808C40.0394 46.648 40.2367 46.568 40.4607 46.568C40.7167 46.568 40.9247 46.6533 41.0848 46.824C41.2448 46.9947 41.3247 47.192 41.3247 47.416ZM34.5567 47.416C34.5567 47.6613 34.4767 47.864 34.3167 48.024C34.1567 48.184 33.9594 48.264 33.7247 48.264C33.4687 48.264 33.2607 48.184 33.1007 48.024C32.9514 47.8533 32.8767 47.6507 32.8767 47.416C32.8767 47.1387 32.9567 46.9307 33.1167 46.792C33.2767 46.6427 33.4794 46.568 33.7247 46.568C33.9701 46.568 34.1674 46.6533 34.3167 46.824C34.4767 46.984 34.5567 47.1813 34.5567 47.416ZM42.9727 49.096C42.9727 49.3413 42.8874 49.5493 42.7168 49.72C42.5567 49.88 42.3647 49.96 42.1407 49.96C41.9061 49.96 41.7034 49.8747 41.5328 49.704C41.3727 49.5227 41.2927 49.32 41.2927 49.096C41.2927 48.8507 41.3781 48.6533 41.5487 48.504C41.7194 48.3547 41.9167 48.28 42.1407 48.28C42.3967 48.28 42.5994 48.36 42.7487 48.52C42.8981 48.68 42.9727 48.872 42.9727 49.096ZM39.6287 49.096C39.6287 49.3413 39.5434 49.5493 39.3727 49.72C39.2127 49.88 39.0101 49.96 38.7647 49.96C38.5194 49.96 38.3167 49.8747 38.1567 49.704C38.0074 49.5227 37.9327 49.32 37.9327 49.096C37.9327 48.8613 38.0127 48.6693 38.1727 48.52C38.3434 48.36 38.5407 48.28 38.7647 48.28C39.0314 48.28 39.2394 48.36 39.3887 48.52C39.5487 48.6693 39.6287 48.8613 39.6287 49.096ZM37.9487 49.096C37.9487 49.3413 37.8634 49.5493 37.6927 49.72C37.5327 49.88 37.3301 49.96 37.0847 49.96C36.8394 49.96 36.6314 49.8747 36.4607 49.704C36.3007 49.5227 36.2207 49.32 36.2207 49.096C36.2207 48.8613 36.3061 48.6693 36.4767 48.52C36.6581 48.36 36.8607 48.28 37.0847 48.28C37.3514 48.28 37.5594 48.3653 37.7087 48.536C37.8687 48.696 37.9487 48.8827 37.9487 49.096ZM34.5567 49.096C34.5567 49.352 34.4767 49.56 34.3167 49.72C34.1567 49.88 33.9594 49.96 33.7247 49.96C33.4901 49.96 33.2874 49.8747 33.1167 49.704C32.9567 49.5227 32.8767 49.32 32.8767 49.096C32.8767 48.8507 32.9621 48.6533 33.1327 48.504C33.3034 48.3547 33.5007 48.28 33.7247 48.28C33.9914 48.28 34.1941 48.36 34.3327 48.52C34.4821 48.6693 34.5567 48.8613 34.5567 49.096ZM42.9727 50.792C42.9727 51.0373 42.8874 51.24 42.7168 51.4C42.5567 51.5493 42.3647 51.624 42.1407 51.624C41.8954 51.624 41.6927 51.5387 41.5328 51.368C41.3727 51.1973 41.2927 51.0053 41.2927 50.792C41.2927 50.5253 41.3727 50.3227 41.5328 50.184C41.7034 50.0347 41.9061 49.96 42.1407 49.96C42.3967 49.96 42.5994 50.04 42.7487 50.2C42.8981 50.36 42.9727 50.5573 42.9727 50.792ZM36.2367 50.792C36.2367 51.0267 36.1567 51.224 35.9967 51.384C35.8367 51.544 35.6394 51.624 35.4047 51.624C35.1594 51.624 34.9514 51.544 34.7807 51.384C34.6207 51.2133 34.5407 51.016 34.5407 50.792C34.5407 50.536 34.6261 50.3333 34.7967 50.184C34.9674 50.0347 35.1701 49.96 35.4047 49.96C35.6501 49.96 35.8474 50.0453 35.9967 50.216C36.1567 50.376 36.2367 50.568 36.2367 50.792ZM34.5567 50.792C34.5567 51.048 34.4767 51.2507 34.3167 51.4C34.1567 51.5493 33.9594 51.624 33.7247 51.624C33.4794 51.624 33.2767 51.5387 33.1167 51.368C32.9567 51.1973 32.8767 51.0053 32.8767 50.792C32.8767 50.5253 32.9567 50.3227 33.1167 50.184C33.2874 50.0347 33.4901 49.96 33.7247 49.96C33.9807 49.96 34.1834 50.04 34.3327 50.2C34.4821 50.36 34.5567 50.5573 34.5567 50.792ZM42.9727 52.472C42.9727 52.7067 42.8874 52.9093 42.7168 53.08C42.5567 53.24 42.3647 53.32 42.1407 53.32C41.8954 53.32 41.6927 53.2347 41.5328 53.064C41.3727 52.8933 41.2927 52.696 41.2927 52.472C41.2927 52.216 41.3781 52.008 41.5487 51.848C41.7301 51.6773 41.9274 51.592 42.1407 51.592C42.3647 51.592 42.5567 51.6827 42.7168 51.864C42.8874 52.0347 42.9727 52.2373 42.9727 52.472ZM34.5567 52.472C34.5567 52.7173 34.4767 52.92 34.3167 53.08C34.1567 53.24 33.9594 53.32 33.7247 53.32C33.4794 53.32 33.2767 53.2347 33.1167 53.064C32.9567 52.8933 32.8767 52.696 32.8767 52.472C32.8767 52.216 32.9621 52.008 33.1327 51.848C33.3141 51.6773 33.5114 51.592 33.7247 51.592C33.9701 51.592 34.1674 51.6827 34.3167 51.864C34.4767 52.0347 34.5567 52.2373 34.5567 52.472ZM41.3247 54.152C41.3247 54.3867 41.2394 54.5893 41.0687 54.76C40.8981 54.9307 40.6954 55.016 40.4607 55.016C40.2261 55.016 40.0234 54.9307 39.8527 54.76C39.6927 54.5787 39.6127 54.376 39.6127 54.152C39.6127 53.9173 39.6927 53.72 39.8527 53.56C40.0234 53.3893 40.2261 53.304 40.4607 53.304C40.7167 53.304 40.9247 53.3893 41.0848 53.56C41.2448 53.7307 41.3247 53.928 41.3247 54.152ZM39.6287 54.152C39.6287 54.408 39.5434 54.616 39.3727 54.776C39.2021 54.936 38.9994 55.016 38.7647 55.016C38.5407 55.016 38.3434 54.9307 38.1727 54.76C38.0127 54.5787 37.9327 54.376 37.9327 54.152C37.9327 53.9173 38.0127 53.72 38.1727 53.56C38.3434 53.3893 38.5407 53.304 38.7647 53.304C39.0207 53.304 39.2287 53.3893 39.3887 53.56C39.5487 53.7307 39.6287 53.928 39.6287 54.152ZM37.9487 54.152C37.9487 54.3867 37.8634 54.5893 37.6927 54.76C37.5221 54.9307 37.3194 55.016 37.0847 55.016C36.8394 55.016 36.6314 54.9307 36.4607 54.76C36.3007 54.5787 36.2207 54.376 36.2207 54.152C36.2207 53.9173 36.3061 53.72 36.4767 53.56C36.6581 53.3893 36.8607 53.304 37.0847 53.304C37.3407 53.304 37.5487 53.3893 37.7087 53.56C37.8687 53.7307 37.9487 53.928 37.9487 54.152ZM36.2367 54.152C36.2367 54.3867 36.1514 54.5893 35.9807 54.76C35.8101 54.9307 35.6181 55.016 35.4047 55.016C35.1594 55.016 34.9514 54.9307 34.7807 54.76C34.6207 54.5787 34.5407 54.376 34.5407 54.152C34.5407 53.9067 34.6261 53.704 34.7967 53.544C34.9674 53.384 35.1701 53.304 35.4047 53.304C35.6501 53.304 35.8474 53.3893 35.9967 53.56C36.1567 53.72 36.2367 53.9173 36.2367 54.152ZM52.6291 44.056C52.6291 44.3013 52.5438 44.504 52.3731 44.664C52.2025 44.824 51.9998 44.904 51.7651 44.904C51.5198 44.904 51.3171 44.8187 51.1571 44.648C50.9971 44.4773 50.9171 44.28 50.9171 44.056C50.9171 43.8107 50.9971 43.608 51.1571 43.448C51.3278 43.2773 51.5305 43.192 51.7651 43.192C52.0105 43.192 52.2131 43.2827 52.3731 43.464C52.5438 43.6347 52.6291 43.832 52.6291 44.056ZM50.9331 44.056C50.9331 44.3013 50.8478 44.504 50.6771 44.664C50.5065 44.824 50.3038 44.904 50.0691 44.904C49.8345 44.904 49.6371 44.8187 49.4771 44.648C49.3171 44.4773 49.2371 44.28 49.2371 44.056C49.2371 43.8107 49.3171 43.608 49.4771 43.448C49.6478 43.2773 49.8451 43.192 50.0691 43.192C50.3251 43.192 50.5331 43.2773 50.6931 43.448C50.8531 43.6187 50.9331 43.8213 50.9331 44.056ZM49.2531 44.056C49.2531 44.3013 49.1678 44.504 48.9971 44.664C48.8265 44.824 48.6238 44.904 48.3891 44.904C48.1438 44.904 47.9358 44.824 47.7651 44.664C47.6051 44.4933 47.5251 44.2907 47.5251 44.056C47.5251 43.8107 47.6105 43.608 47.7811 43.448C47.9625 43.2773 48.1651 43.192 48.3891 43.192C48.6345 43.192 48.8371 43.2827 48.9971 43.464C49.1678 43.6347 49.2531 43.832 49.2531 44.056ZM47.5411 44.056C47.5411 44.2907 47.4558 44.4933 47.2851 44.664C47.1251 44.824 46.9331 44.904 46.7091 44.904C46.4638 44.904 46.2558 44.824 46.0851 44.664C45.9251 44.4933 45.8451 44.2907 45.8451 44.056C45.8451 43.8 45.9305 43.592 46.1011 43.432C46.2718 43.272 46.4745 43.192 46.7091 43.192C46.9331 43.192 47.1251 43.2827 47.2851 43.464C47.4558 43.6347 47.5411 43.832 47.5411 44.056ZM54.2771 45.736C54.2771 45.9813 54.1918 46.184 54.0211 46.344C53.8505 46.504 53.6585 46.584 53.4451 46.584C53.2105 46.584 53.0078 46.504 52.8371 46.344C52.6771 46.1733 52.5971 45.9707 52.5971 45.736C52.5971 45.48 52.6771 45.2773 52.8371 45.128C53.0078 44.968 53.2105 44.888 53.4451 44.888C53.6905 44.888 53.8878 44.9733 54.0371 45.144C54.1971 45.304 54.2771 45.5013 54.2771 45.736ZM45.8611 45.736C45.8611 45.9813 45.7811 46.184 45.6211 46.344C45.4611 46.504 45.2638 46.584 45.0291 46.584C44.7945 46.584 44.5918 46.504 44.4211 46.344C44.2611 46.1733 44.1811 45.9707 44.1811 45.736C44.1811 45.48 44.2611 45.2773 44.4211 45.128C44.5918 44.968 44.7945 44.888 45.0291 44.888C45.2745 44.888 45.4718 44.9733 45.6211 45.144C45.7811 45.304 45.8611 45.5013 45.8611 45.736ZM54.2771 47.416C54.2771 47.6507 54.1918 47.8533 54.0211 48.024C53.8611 48.184 53.6691 48.264 53.4451 48.264C53.1891 48.264 52.9811 48.184 52.8211 48.024C52.6718 47.8533 52.5971 47.6507 52.5971 47.416C52.5971 47.1387 52.6771 46.9307 52.8371 46.792C52.9971 46.6427 53.1998 46.568 53.4451 46.568C53.6905 46.568 53.8878 46.6533 54.0371 46.824C54.1971 46.984 54.2771 47.1813 54.2771 47.416ZM52.6291 47.416C52.6291 47.64 52.5438 47.8373 52.3731 48.008C52.2025 48.1787 51.9998 48.264 51.7651 48.264C51.5091 48.264 51.3011 48.1787 51.1411 48.008C50.9918 47.8267 50.9171 47.6293 50.9171 47.416C50.9171 47.1707 51.0025 46.968 51.1731 46.808C51.3438 46.648 51.5411 46.568 51.7651 46.568C52.0211 46.568 52.2291 46.6533 52.3891 46.824C52.5491 46.9947 52.6291 47.192 52.6291 47.416ZM45.8611 47.416C45.8611 47.6613 45.7811 47.864 45.6211 48.024C45.4611 48.184 45.2638 48.264 45.0291 48.264C44.7731 48.264 44.5651 48.184 44.4051 48.024C44.2558 47.8533 44.1811 47.6507 44.1811 47.416C44.1811 47.1387 44.2611 46.9307 44.4211 46.792C44.5811 46.6427 44.7838 46.568 45.0291 46.568C45.2745 46.568 45.4718 46.6533 45.6211 46.824C45.7811 46.984 45.8611 47.1813 45.8611 47.416ZM54.2771 49.096C54.2771 49.3413 54.1918 49.5493 54.0211 49.72C53.8611 49.88 53.6691 49.96 53.4451 49.96C53.2105 49.96 53.0078 49.8747 52.8371 49.704C52.6771 49.5227 52.5971 49.32 52.5971 49.096C52.5971 48.8507 52.6825 48.6533 52.8531 48.504C53.0238 48.3547 53.2211 48.28 53.4451 48.28C53.7011 48.28 53.9038 48.36 54.0531 48.52C54.2025 48.68 54.2771 48.872 54.2771 49.096ZM50.9331 49.096C50.9331 49.3413 50.8478 49.5493 50.6771 49.72C50.5171 49.88 50.3145 49.96 50.0691 49.96C49.8238 49.96 49.6211 49.8747 49.4611 49.704C49.3118 49.5227 49.2371 49.32 49.2371 49.096C49.2371 48.8613 49.3171 48.6693 49.4771 48.52C49.6478 48.36 49.8451 48.28 50.0691 48.28C50.3358 48.28 50.5438 48.36 50.6931 48.52C50.8531 48.6693 50.9331 48.8613 50.9331 49.096ZM49.2531 49.096C49.2531 49.3413 49.1678 49.5493 48.9971 49.72C48.8371 49.88 48.6345 49.96 48.3891 49.96C48.1438 49.96 47.9358 49.8747 47.7651 49.704C47.6051 49.5227 47.5251 49.32 47.5251 49.096C47.5251 48.8613 47.6105 48.6693 47.7811 48.52C47.9625 48.36 48.1651 48.28 48.3891 48.28C48.6558 48.28 48.8638 48.3653 49.0131 48.536C49.1731 48.696 49.2531 48.8827 49.2531 49.096ZM45.8611 49.096C45.8611 49.352 45.7811 49.56 45.6211 49.72C45.4611 49.88 45.2638 49.96 45.0291 49.96C44.7945 49.96 44.5918 49.8747 44.4211 49.704C44.2611 49.5227 44.1811 49.32 44.1811 49.096C44.1811 48.8507 44.2665 48.6533 44.4371 48.504C44.6078 48.3547 44.8051 48.28 45.0291 48.28C45.2958 48.28 45.4985 48.36 45.6371 48.52C45.7865 48.6693 45.8611 48.8613 45.8611 49.096ZM54.2771 50.792C54.2771 51.0373 54.1918 51.24 54.0211 51.4C53.8611 51.5493 53.6691 51.624 53.4451 51.624C53.1998 51.624 52.9971 51.5387 52.8371 51.368C52.6771 51.1973 52.5971 51.0053 52.5971 50.792C52.5971 50.5253 52.6771 50.3227 52.8371 50.184C53.0078 50.0347 53.2105 49.96 53.4451 49.96C53.7011 49.96 53.9038 50.04 54.0531 50.2C54.2025 50.36 54.2771 50.5573 54.2771 50.792ZM47.5411 50.792C47.5411 51.0267 47.4611 51.224 47.3011 51.384C47.1411 51.544 46.9438 51.624 46.7091 51.624C46.4638 51.624 46.2558 51.544 46.0851 51.384C45.9251 51.2133 45.8451 51.016 45.8451 50.792C45.8451 50.536 45.9305 50.3333 46.1011 50.184C46.2718 50.0347 46.4745 49.96 46.7091 49.96C46.9545 49.96 47.1518 50.0453 47.3011 50.216C47.4611 50.376 47.5411 50.568 47.5411 50.792ZM45.8611 50.792C45.8611 51.048 45.7811 51.2507 45.6211 51.4C45.4611 51.5493 45.2638 51.624 45.0291 51.624C44.7838 51.624 44.5811 51.5387 44.4211 51.368C44.2611 51.1973 44.1811 51.0053 44.1811 50.792C44.1811 50.5253 44.2611 50.3227 44.4211 50.184C44.5918 50.0347 44.7945 49.96 45.0291 49.96C45.2851 49.96 45.4878 50.04 45.6371 50.2C45.7865 50.36 45.8611 50.5573 45.8611 50.792ZM54.2771 52.472C54.2771 52.7067 54.1918 52.9093 54.0211 53.08C53.8611 53.24 53.6691 53.32 53.4451 53.32C53.1998 53.32 52.9971 53.2347 52.8371 53.064C52.6771 52.8933 52.5971 52.696 52.5971 52.472C52.5971 52.216 52.6825 52.008 52.8531 51.848C53.0345 51.6773 53.2318 51.592 53.4451 51.592C53.6691 51.592 53.8611 51.6827 54.0211 51.864C54.1918 52.0347 54.2771 52.2373 54.2771 52.472ZM45.8611 52.472C45.8611 52.7173 45.7811 52.92 45.6211 53.08C45.4611 53.24 45.2638 53.32 45.0291 53.32C44.7838 53.32 44.5811 53.2347 44.4211 53.064C44.2611 52.8933 44.1811 52.696 44.1811 52.472C44.1811 52.216 44.2665 52.008 44.4371 51.848C44.6185 51.6773 44.8158 51.592 45.0291 51.592C45.2745 51.592 45.4718 51.6827 45.6211 51.864C45.7811 52.0347 45.8611 52.2373 45.8611 52.472ZM52.6291 54.152C52.6291 54.3867 52.5438 54.5893 52.3731 54.76C52.2025 54.9307 51.9998 55.016 51.7651 55.016C51.5305 55.016 51.3278 54.9307 51.1571 54.76C50.9971 54.5787 50.9171 54.376 50.9171 54.152C50.9171 53.9173 50.9971 53.72 51.1571 53.56C51.3278 53.3893 51.5305 53.304 51.7651 53.304C52.0211 53.304 52.2291 53.3893 52.3891 53.56C52.5491 53.7307 52.6291 53.928 52.6291 54.152ZM50.9331 54.152C50.9331 54.408 50.8478 54.616 50.6771 54.776C50.5065 54.936 50.3038 55.016 50.0691 55.016C49.8451 55.016 49.6478 54.9307 49.4771 54.76C49.3171 54.5787 49.2371 54.376 49.2371 54.152C49.2371 53.9173 49.3171 53.72 49.4771 53.56C49.6478 53.3893 49.8451 53.304 50.0691 53.304C50.3251 53.304 50.5331 53.3893 50.6931 53.56C50.8531 53.7307 50.9331 53.928 50.9331 54.152ZM49.2531 54.152C49.2531 54.3867 49.1678 54.5893 48.9971 54.76C48.8265 54.9307 48.6238 55.016 48.3891 55.016C48.1438 55.016 47.9358 54.9307 47.7651 54.76C47.6051 54.5787 47.5251 54.376 47.5251 54.152C47.5251 53.9173 47.6105 53.72 47.7811 53.56C47.9625 53.3893 48.1651 53.304 48.3891 53.304C48.6451 53.304 48.8531 53.3893 49.0131 53.56C49.1731 53.7307 49.2531 53.928 49.2531 54.152ZM47.5411 54.152C47.5411 54.3867 47.4558 54.5893 47.2851 54.76C47.1145 54.9307 46.9225 55.016 46.7091 55.016C46.4638 55.016 46.2558 54.9307 46.0851 54.76C45.9251 54.5787 45.8451 54.376 45.8451 54.152C45.8451 53.9067 45.9305 53.704 46.1011 53.544C46.2718 53.384 46.4745 53.304 46.7091 53.304C46.9545 53.304 47.1518 53.3893 47.3011 53.56C47.4611 53.72 47.5411 53.9173 47.5411 54.152Z" fill="#53E83C"/>
<path d="M0 6C0 1.8 1.8 0 6 0H58C62 0 64 1.8 64 6V14H0V6Z" fill="#E7E7E2"/>
<g filter="url(#filter0_i_43_938)">
<circle cx="49.5" cy="7.5" r="4.5" fill="#0DD72E"/>
</g>
<g filter="url(#filter1_i_43_938)">
<circle cx="32.5" cy="7.5" r="4.5" fill="#FEC900"/>
</g>
<g filter="url(#filter2_i_43_938)">
<circle cx="15.5" cy="7.5" r="4.5" fill="#FF5E4F"/>
</g>
<circle cx="15.5" cy="7.5" r="1.5" fill="#560000"/>
<defs>
<filter id="filter0_i_43_938" x="45" y="3" width="9" height="9" filterUnits="userSpaceOnUse" color-interpolation-filters="sRGB">
<feFlood flood-opacity="0" result="BackgroundImageFix"/>
<feBlend mode="normal" in="SourceGraphic" in2="BackgroundImageFix" result="shape"/>
<feColorMatrix in="SourceAlpha" type="matrix" values="0 0 0 0 0 0 0 0 0 0 0 0 0 0 0 0 0 0 127 0" result="hardAlpha"/>
<feOffset/>
<feGaussianBlur stdDeviation="0.5"/>
<feComposite in2="hardAlpha" operator="arithmetic" k2="-1" k3="1"/>
<feColorMatrix type="matrix" values="0 0 0 0 0 0 0 0 0 0 0 0 0 0 0 0 0 0 0.45 0"/>
<feBlend mode="normal" in2="shape" result="effect1_innerShadow_43_938"/>
</filter>
<filter id="filter1_i_43_938" x="28" y="3" width="9" height="9" filterUnits="userSpaceOnUse" color-interpolation-filters="sRGB">
<feFlood flood-opacity="0" result="BackgroundImageFix"/>
<feBlend mode="normal" in="SourceGraphic" in2="BackgroundImageFix" result="shape"/>
<feColorMatrix in="SourceAlpha" type="matrix" values="0 0 0 0 0 0 0 0 0 0 0 0 0 0 0 0 0 0 127 0" result="hardAlpha"/>
<feOffset/>
<feGaussianBlur stdDeviation="0.5"/>
<feComposite in2="hardAlpha" operator="arithmetic" k2="-1" k3="1"/>
<feColorMatrix type="matrix" values="0 0 0 0 0 0 0 0 0 0 0 0 0 0 0 0 0 0 0.45 0"/>
<feBlend mode="normal" in2="shape" result="effect1_innerShadow_43_938"/>
</filter>
<filter id="filter2_i_43_938" x="11" y="3" width="9" height="9" filterUnits="userSpaceOnUse" color-interpolation-filters="sRGB">
<feFlood flood-opacity="0" result="BackgroundImageFix"/>
<feBlend mode="normal" in="SourceGraphic" in2="BackgroundImageFix" result="shape"/>
<feColorMatrix in="SourceAlpha" type="matrix" values="0 0 0 0 0 0 0 0 0 0 0 0 0 0 0 0 0 0 127 0" result="hardAlpha"/>
<feOffset/>
<feGaussianBlur stdDeviation="0.5"/>
<feComposite in2="hardAlpha" operator="arithmetic" k2="-1" k3="1"/>
<feColorMatrix type="matrix" values="0 0 0 0 0 0 0 0 0 0 0 0 0 0 0 0 0 0 0.5 0"/>
<feBlend mode="normal" in2="shape" result="effect1_innerShadow_43_938"/>
</filter>
</defs>
</svg>
